<svg xmlns="http://www.w3.org/2000/svg" xmlns:xlink="http://www.w3.org/1999/xlink" width="20" height="20" version="1.1" viewBox="0 0 20 20"><title>closed-white</title><desc>Created with Sketch.</desc><defs><path id="path-1" d="M12.3072727,2.63636364 C11.9636364,1.68727273 11.0628182,1 10,1 C8.93636364,1 8.03554545,1.68727273 7.69190909,2.63636364 L4.63557018,2.63636364 C3.73557018,2.63636364 2.99920654,3.37272727 2.99920654,4.27272727 L2.99920654,17.3636364 C2.99920654,18.2636364 3.73557018,19 4.63557018,19 L15.361256,19 C16.2604378,19 16.9976196,18.2636364 16.9976196,17.3636364 L16.9976196,4.27272727 C16.9976196,3.37272727 16.2604378,2.63636364 15.361256,2.63636364 L12.3072727,2.63636364 Z M10.8181818,3.45454545 C10.8181818,3.90454545 10.4491818,4.27272727 10,4.27272727 C9.55,4.27272727 9.18181818,3.90454545 9.18181818,3.45454545 C9.18181818,3.00454545 9.55,2.63636364 10,2.63636364 C10.4491818,2.63636364 10.8181818,3.00454545 10.8181818,3.45454545 Z"/></defs><g id="Symbols" fill="none" fill-rule="evenodd" stroke="none" stroke-width="1"><g id="closed-white"><mask id="mask-2" fill="#fff"><use xlink:href="#path-1"/></mask><use id="Icons/Surveys/survey-closed" fill="#000" xlink:href="#path-1"/><polygon id="Path" fill="#FFF" points="5.091 11.636 6.245 10.483 8.364 12.594 13.755 7.202 14.909 8.364 8.364 14.909"/></g></g></svg>