<svg xmlns="http://www.w3.org/2000/svg" xmlns:xlink="http://www.w3.org/1999/xlink" width="20" height="20" version="1.1" viewBox="0 0 20 20"><title>comment</title><desc>Created with Sketch.</desc><defs><path id="path-1" d="M16.4,2 C17.284,2 18,2.716 18,3.6 L18,13.2 C18,14.084 17.284,14.8 16.4,14.8 L5.2,14.8 L2,18 L2.008,3.6 C2.008,2.716 2.716,2 3.6,2 L16.4,2 Z M12.4,9.2 L14,9.2 L14,7.6 L12.4,7.6 L12.4,9.2 Z M9.2,9.2 L10.8,9.2 L10.8,7.6 L9.2,7.6 L9.2,9.2 Z M6,9.2 L7.6,9.2 L7.6,7.6 L6,7.6 L6,9.2 Z"/></defs><g id="Symbols" fill="none" fill-rule="evenodd" stroke="none" stroke-width="1"><g id="comment"><mask id="mask-2" fill="#fff"><use xlink:href="#path-1"/></mask><use id="Icons/Actions/comment" fill="#000" xlink:href="#path-1"/></g></g></svg>