<svg xmlns="http://www.w3.org/2000/svg" xmlns:xlink="http://www.w3.org/1999/xlink" width="20" height="20" version="1.1" viewBox="0 0 20 20"><title>date-end-white</title><desc>Created with Sketch.</desc><defs><path id="path-1" d="M13.5570004,1.11111111 L13.5570004,2.88911118 L6.44500017,2.88911118 L6.44500017,1.11111111 L4.6670001,1.11111111 L4.6670001,2.88911118 L3.77800007,2.88911118 C2.79565503,2.88911118 2.00889,3.68476621 2.00889,4.66711125 L2,17.1131117 C2,18.0954568 2.79565503,18.8911118 3.77800007,18.8911118 L16.2240005,18.8911118 C17.2063456,18.8911118 18.0020006,18.0954568 18.0020006,17.1131117 L18.0020006,4.66711125 C18.0020006,3.68476621 17.2063456,2.88911118 16.2240005,2.88911118 L15.3350005,2.88911118 L15.3350005,1.11111111 L13.5570004,1.11111111 L13.5570004,1.11111111 Z"/></defs><g id="Symbols" fill="none" fill-rule="evenodd" stroke="none" stroke-width="1"><g id="date-end-white"><mask id="mask-2" fill="#fff"><use xlink:href="#path-1"/></mask><use id="Icons/Actions/date-end" fill="#000" xlink:href="#path-1"/><polygon id="Path" fill="#FFF" points="16.224 17.113 3.778 17.113 3.778 7.334 16.224 7.334"/><polygon id="Path" fill="#000" points="14.446 10.89 10.001 10.89 10.001 15.335 14.446 15.335"/></g></g></svg>