<svg xmlns="http://www.w3.org/2000/svg" xmlns:xlink="http://www.w3.org/1999/xlink" width="20" height="20" version="1.1" viewBox="0 0 20 20"><title>draft-white</title><desc>Created with Sketch.</desc><defs><path id="path-1" d="M15.3764537,2.63636364 C16.2764537,2.63636364 17.0128174,3.37272727 17.0128174,4.27272727 L17.0128174,17.3636364 C17.0128174,18.2636364 16.2764537,19 15.3764537,19 L4.63148082,19 C3.73148082,19 2.99511719,18.2636364 2.99511719,17.3636364 L2.99511719,4.27272727 C2.99511719,3.37272727 3.73148082,2.63636364 4.63148082,2.63636364 L7.69272727,2.63636364 C8.03636364,1.68727273 8.93636364,1 10,1 C11.0636364,1 11.9636364,1.68727273 12.3072727,2.63636364 L15.3764537,2.63636364 Z M10.8181818,3.45454545 C10.8181818,3.90454545 10.45,4.27272727 10,4.27272727 C9.55,4.27272727 9.18181818,3.90454545 9.18181818,3.45454545 C9.18181818,3.00454545 9.55,2.63636364 10,2.63636364 C10.45,2.63636364 10.8181818,3.00454545 10.8181818,3.45454545 Z"/></defs><g id="Symbols" fill="none" fill-rule="evenodd" stroke="none" stroke-width="1"><g id="draft-white"><mask id="mask-2" fill="#fff"><use xlink:href="#path-1"/></mask><use id="Icons/Surveys/survey-draft" fill="#000" xlink:href="#path-1"/><polygon id="Path" fill="#FFF" points="11.15 8.801 6.337 13.243 6.337 14.909 8.142 14.909 12.955 10.466"/><path id="Path" fill="#FFF" d="M13.2547273,7.48736364 C13.0665455,7.31390909 12.7605455,7.31390909 12.5731818,7.48736364 L11.6314545,8.35627273 L13.4371818,10.0220909 L14.3780909,9.15318182 C14.5654545,8.97972727 14.5654545,8.69827273 14.3780909,8.52481818 L13.2547273,7.48736364 Z"/></g></g></svg>