<svg xmlns="http://www.w3.org/2000/svg" xmlns:xlink="http://www.w3.org/1999/xlink" width="20" height="20" version="1.1" viewBox="0 0 20 20"><title>external-link</title><desc>Created with Sketch.</desc><defs><path id="path-1" d="M16.2222222,16.2222222 L3.77777778,16.2222222 L3.77777778,3.77777778 L10,3.77777778 L10,2 L3.77777778,2 C2.79111111,2 2,2.8 2,3.77777778 L2,16.2222222 C2,17.2 2.79111111,18 3.77777778,18 L16.2222222,18 C17.2,18 18,17.2 18,16.2222222 L18,10 L16.2222222,10 L16.2222222,16.2222222 L16.2222222,16.2222222 Z M11.7777778,2 L11.7777778,3.77777778 L14.9688889,3.77777778 L6.23111111,12.5155556 L7.48444444,13.7688889 L16.2222222,5.03111111 L16.2222222,8.22222222 L18,8.22222222 L18,2 L11.7777778,2 L11.7777778,2 Z"/></defs><g id="Symbols" fill="none" fill-rule="evenodd" stroke="none" stroke-width="1"><g id="external-link"><mask id="mask-2" fill="#fff"><use xlink:href="#path-1"/></mask><use id="Icons/Actions/external-link" fill="#000" xlink:href="#path-1"/></g></g></svg>