<svg xmlns="http://www.w3.org/2000/svg" xmlns:xlink="http://www.w3.org/1999/xlink" width="20" height="20" version="1.1" viewBox="0 0 20 20"><title>face-neutral-white</title><desc>Created with Sketch.</desc><defs><path id="path-1" d="M12.8,6.7999 C12.1376,6.7999 11.6,7.3375 11.6,7.9999 C11.6,8.6631 12.1376,9.1999 12.8,9.1999 C13.4624,9.1999 14,8.6631 14,7.9999 C14,7.3375 13.4624,6.7999 12.8,6.7999 L12.8,6.7999 Z"/></defs><g id="Symbols" fill="none" fill-rule="evenodd" stroke="none" stroke-width="1"><g id="face-neutral-white"><path id="Path" fill="#000" d="M9.992,1.9999 C5.576,1.9999 2,5.5839 2,9.9999 C2,14.4159 5.576,17.9999 9.992,17.9999 C14.416,17.9999 18,14.4159 18,9.9999 C18,5.5839 14.416,1.9999 9.992,1.9999 L9.992,1.9999 Z"/><path id="Path" fill="#FFF" d="M10,16.3999 C6.464,16.3999 3.6,13.5359 3.6,9.9999 C3.6,6.4639 6.464,3.5999 10,3.5999 C13.536,3.5999 16.4,6.4639 16.4,9.9999 C16.4,13.5359 13.536,16.3999 10,16.3999 L10,16.3999 Z"/><path id="Path" fill="#000" d="M8.4,7.9999 C8.4,7.3375 7.8624,6.7999 7.2,6.7999 C6.5376,6.7999 6,7.3375 6,7.9999 C6,8.6631 6.5376,9.1999 7.2,9.1999 C7.8624,9.1999 8.4,8.6631 8.4,7.9999 L8.4,7.9999 Z"/><mask id="mask-2" fill="#fff"><use xlink:href="#path-1"/></mask><use id="Path" fill="#000" xlink:href="#path-1"/><polygon id="Path" fill="#000" points="7.6 12.8 12.4 12.8 12.4 11.6 7.6 11.6"/></g></g></svg>