<svg xmlns="http://www.w3.org/2000/svg" xmlns:xlink="http://www.w3.org/1999/xlink" width="20" height="20" version="1.1" viewBox="0 0 20 20"><title>face-very-dissatisfied-white</title><desc>Created with Sketch.</desc><defs><path id="path-1" d="M9.992,2 C5.576,2 2,5.576 2,10 C2,14.424 5.576,18 9.992,18 C14.408,18 18,14.424 18,10 C18,5.576 14.416,2 9.992,2 L9.992,2 Z"/></defs><g id="Symbols" fill="none" fill-rule="evenodd" stroke="none" stroke-width="1"><g id="face-very-dissatisfied-white"><mask id="mask-2" fill="#fff"><use xlink:href="#path-1"/></mask><use id="Icons/Sentiment/very-dissatisfied" fill="#000" xlink:href="#path-1"/><path id="Path" fill="#FFF" d="M10,16.4 C6.464,16.4 3.6,13.536 3.6,10 C3.6,6.464 6.464,3.6 10,3.6 C13.536,3.6 16.4,6.464 16.4,10 C16.4,13.536 13.536,16.4 10,16.4 L10,16.4 Z"/><polygon id="Path" fill="#000" points="13.344 6.608 12.496 7.456 11.648 6.608 10.8 7.456 11.648 8.304 10.8 9.152 11.648 10 12.496 9.152 13.344 10 14.192 9.152 13.344 8.304 14.192 7.456"/><polygon id="Path" fill="#000" points="6.656 10 7.504 9.152 8.352 10 9.2 9.152 8.352 8.304 9.2 7.456 8.352 6.608 7.504 7.456 6.656 6.608 5.808 7.456 6.656 8.304 5.808 9.152"/><path id="Path" fill="#000" d="M10,11.6 C8.136,11.6 6.552,12.768 5.912,14.4 L14.088,14.4 C13.448,12.768 11.864,11.6 10,11.6 L10,11.6 Z"/></g></g></svg>