<svg xmlns="http://www.w3.org/2000/svg" xmlns:xlink="http://www.w3.org/1999/xlink" width="20" height="20" version="1.1" viewBox="0 0 20 20"><title>face-very-satisfied-white</title><desc>Created with Sketch.</desc><defs><path id="path-1" d="M9.992,2 C5.576,2 2,5.576 2,10 C2,14.424 5.576,18 9.992,18 C14.408,18 18,14.424 18,10 C18,5.576 14.416,2 9.992,2 L9.992,2 Z"/></defs><g id="Symbols" fill="none" fill-rule="evenodd" stroke="none" stroke-width="1"><g id="face-very-satisfied-white"><mask id="mask-2" fill="#fff"><use xlink:href="#path-1"/></mask><use id="Icons/Sentiment/very-satisfied" fill="#000" xlink:href="#path-1"/><path id="Path" fill="#FFF" d="M10,16.4 C6.464,16.4 3.6,13.536 3.6,10 C3.6,6.464 6.464,3.6 10,3.6 C13.536,3.6 16.4,6.464 16.4,10 C16.4,13.536 13.536,16.4 10,16.4 L10,16.4 Z"/><path id="Oval-path" fill="#000" d="M8.4,8.8 C8.4,8.1372583 7.8627417,7.6 7.2,7.6 C6.5372583,7.6 6,8.1372583 6,8.8 C6,8.8 8.4,8.8 8.4,8.8 Z"/><path id="Oval-path-Copy" fill="#000" d="M14,8.8 C14,8.1372583 13.4627417,7.6 12.8,7.6 C12.1372583,7.6 11.6,8.1372583 11.6,8.8 C11.6,8.8 14,8.8 14,8.8 Z"/><path id="Path" fill="#000" d="M10,14.4 C11.864,14.4 13.448,13.232 14.088,11.6 L5.912,11.6 C6.552,13.232 8.136,14.4 10,14.4 L10,14.4 Z"/></g></g></svg>