<svg xmlns="http://www.w3.org/2000/svg" xmlns:xlink="http://www.w3.org/1999/xlink" width="20" height="20" version="1.1" viewBox="0 0 20 20"><title>feedback-review-white</title><desc>Created with Sketch.</desc><defs><path id="path-1" d="M16.3896362,2 L3.61036376,2 C2.74079517,2 2.00170316,2.74048765 2.00170316,3.61267278 L2.00170316,18 L5.21819856,14.816897 L16.3896362,14.816897 C17.2592048,14.816897 17.9982968,14.0764094 17.9982968,13.2042243 L17.9982968,3.61267278 C17.9545294,2.74048765 17.2592048,2 16.3896362,2 L16.3896362,2 Z"/></defs><g id="Symbols" fill="none" fill-rule="evenodd" stroke="none" stroke-width="1"><g id="feedback-review-white"><mask id="mask-2" fill="#fff"><use xlink:href="#path-1"/></mask><use id="Icons/Navigational/Effectiveness/feedback-review" fill="#000" xlink:href="#path-1"/><polygon id="Path" fill="#FFF" points="14.781 11.635 8.782 11.635 10.391 10.022 14.781 10.022"/><path id="Path" fill="#FFF" d="M5.21819856,11.6346224 L5.21819856,9.6724129 L10.6957375,4.18004866 C10.8699815,4.00528032 11.0863414,4.00528032 11.2597596,4.18004866 L12.6512345,5.57488223 C12.8254786,5.74882228 12.8254786,5.96666149 12.6512345,6.14142983 L7.17452143,11.6346224 L5.21819856,11.6346224 Z"/></g></g></svg>