<svg xmlns="http://www.w3.org/2000/svg" xmlns:xlink="http://www.w3.org/1999/xlink" width="20" height="20" version="1.1" viewBox="0 0 20 20"><title>grid-view</title><desc>Created with Sketch.</desc><defs><path id="path-1" d="M6.00753784,15.0161133 L6.00753784,11.0161133 L2.00753784,11.0161133 L2.00753784,15.0161133 L6.00753784,15.0161133 Z M11.9943848,15.0161133 L11.9943848,11.0161133 L7.99438477,11.0161133 L7.99438477,15.0161133 L11.9943848,15.0161133 Z M17.9854736,15.0161133 L17.9854736,11.0161133 L13.9854736,11.0161133 L13.9854736,15.0161133 L17.9854736,15.0161133 Z M6.00753784,8.99938965 L6.00753784,4.99938965 L2.00753784,4.99938965 L2.00753784,8.99938965 L6.00753784,8.99938965 Z M11.9943848,8.99938965 L11.9943848,4.99938965 L7.99438477,4.99938965 L7.99438477,8.99938965 L11.9943848,8.99938965 Z M13.9854736,8.99938965 L17.9854736,8.99938965 L17.9854736,4.99938965 L13.9854736,4.99938965 L13.9854736,8.99938965 Z"/></defs><g id="Symbols" fill="none" fill-rule="evenodd" stroke="none" stroke-width="1"><g id="grid-view"><mask id="mask-2" fill="#fff"><use xlink:href="#path-1"/></mask><use fill="#000" xlink:href="#path-1"/></g></g></svg>