<?xml version="1.0" encoding="UTF-8"?>
<svg width="12px" height="16px" viewBox="0 0 12 16" version="1.1" xmlns="http://www.w3.org/2000/svg" xmlns:xlink="http://www.w3.org/1999/xlink">
    <!-- Generator: Sketch 53.2 (72643) - https://sketchapp.com -->
    <title>Shape</title>
    <desc>Created with Sketch.</desc>
    <g id="Page-1" stroke="none" stroke-width="1" fill="none" fill-rule="evenodd">
        <path d="M3.2,15.2 C3.2,15.64 3.56,16 4,16 L7.2,16 C7.64,16 8,15.64 8,15.2 L8,14.4 L3.2,14.4 L3.2,15.2 Z M5.6,0 C2.512,0 0,2.512 0,5.6 C0,7.504 0.952,9.176 2.4,10.192 L2.4,12 C2.4,12.44 2.76,12.8 3.2,12.8 L8,12.8 C8.44,12.8 8.8,12.44 8.8,12 L8.8,10.192 C10.248,9.176 11.2,7.504 11.2,5.6 C11.2,2.512 8.688,0 5.6,0 Z M7.88,8.88 L7.2,9.36 L7.2,11.2 L4,11.2 L4,9.36 L3.32,8.88 C2.24,8.128 1.6,6.904 1.6,5.6 C1.6,3.392 3.392,1.6 5.6,1.6 C7.808,1.6 9.6,3.392 9.6,5.6 C9.6,6.904 8.96,8.128 7.88,8.88 Z" id="Shape" fill="#3E4543" fill-rule="nonzero"></path>
    </g>
</svg>