<svg xmlns="http://www.w3.org/2000/svg" xmlns:xlink="http://www.w3.org/1999/xlink" width="20" height="20" version="1.1" viewBox="0 0 20 20"><title>kebab</title><desc>Created with Sketch.</desc><defs><path id="path-1" d="M-4,6 C-5.1,6 -6,6.9 -6,8 C-6,9.1 -5.1,10 -4,10 C-2.9,10 -2,9.1 -2,8 C-2,6.9 -2.9,6 -4,6 L-4,6 Z M8,6 C6.9,6 6,6.9 6,8 C6,9.1 6.9,10 8,10 C9.1,10 10,9.1 10,8 C10,6.9 9.1,6 8,6 L8,6 Z M2,6 C0.9,6 0,6.9 0,8 C0,9.1 0.9,10 2,10 C3.1,10 4,9.1 4,8 C4,6.9 3.1,6 2,6 L2,6 Z"/></defs><g id="Symbols" fill="none" fill-rule="evenodd" stroke="none" stroke-width="1"><g id="kebab"><g id="Icons/Actions/kebab" transform="translate(8.000000, 2.000000)"><mask id="mask-2" fill="#fff"><use xlink:href="#path-1"/></mask><use fill="#000" transform="translate(2.000000, 8.000000) rotate(-90.000000) translate(-2.000000, -8.000000)" xlink:href="#path-1"/></g></g></g></svg>