<svg xmlns="http://www.w3.org/2000/svg" xmlns:xlink="http://www.w3.org/1999/xlink" width="20" height="20" version="1.1" viewBox="0 0 20 20"><title>Icons/Views/list-view</title><desc>Created with Sketch.</desc><defs><path id="path-1" d="M2,10.8895558 L3.77800007,10.8895558 L3.77800007,9.11155569 L2,9.11155569 L2,10.8895558 L2,10.8895558 Z M2,14.4455559 L3.77800007,14.4455559 L3.77800007,12.6675558 L2,12.6675558 L2,14.4455559 L2,14.4455559 Z M2,7.33355562 L3.77800007,7.33355562 L3.77800007,5.55555556 L2,5.55555556 L2,7.33355562 L2,7.33355562 Z M5.55600014,10.8895558 L18.0020006,10.8895558 L18.0020006,9.11155569 L5.55600014,9.11155569 L5.55600014,10.8895558 L5.55600014,10.8895558 Z M5.55600014,14.4455559 L18.0020006,14.4455559 L18.0020006,12.6675558 L5.55600014,12.6675558 L5.55600014,14.4455559 L5.55600014,14.4455559 Z M5.55600014,5.55555556 L5.55600014,7.33355562 L18.0020006,7.33355562 L18.0020006,5.55555556 L5.55600014,5.55555556 L5.55600014,5.55555556 Z"/></defs><g id="Symbols" fill="none" fill-rule="evenodd" stroke="none" stroke-width="1"><g id="Icons/Views/list-view"><mask id="mask-2" fill="#fff"><use xlink:href="#path-1"/></mask><use fill="#000" xlink:href="#path-1"/></g></g></svg>