<svg xmlns="http://www.w3.org/2000/svg" xmlns:xlink="http://www.w3.org/1999/xlink" width="20" height="20" version="1.1" viewBox="0 0 20 20"><title>open-white</title><desc>Created with Sketch.</desc><g id="Symbols" fill="none" fill-rule="evenodd" stroke="none" stroke-width="1"><g id="open-white"><path id="Icons/Surveys/survey-open" fill="#000" d="M15.3609508,2.63636364 C16.2601326,2.63636364 16.9973145,3.37272727 16.9973145,4.27272727 L16.9973145,17.3636364 C16.9973145,18.2636364 16.2601326,19 15.3609508,19 L4.63557018,19 C3.73557018,19 2.99920654,18.2636364 2.99920654,17.3636364 L2.99920654,4.27272727 C2.99920654,3.37272727 3.73557018,2.63636364 4.63557018,2.63636364 L7.69190909,2.63636364 C8.03554545,1.68727273 8.93636364,1 10,1 C11.0628182,1 11.9636364,1.68727273 12.3072727,2.63636364 L15.3609508,2.63636364 Z M10.8181818,3.45454545 C10.8181818,3.00454545 10.4491818,2.63636364 10,2.63636364 C9.55,2.63636364 9.18181818,3.00454545 9.18181818,3.45454545 C9.18181818,3.90454545 9.55,4.27272727 10,4.27272727 C10.4491818,4.27272727 10.8181818,3.90454545 10.8181818,3.45454545 Z"/><polygon id="Path" fill="#FFF" points="5.909 14.909 7.545 14.909 7.545 9.182 5.909 9.182"/><polygon id="Path" fill="#FFF" points="9.182 14.909 10.818 14.909 10.818 6.727 9.182 6.727"/><polygon id="Path" fill="#FFF" points="12.455 14.909 14.091 14.909 14.091 11.636 12.455 11.636"/></g></g></svg>