<svg xmlns="http://www.w3.org/2000/svg" xmlns:xlink="http://www.w3.org/1999/xlink" width="20" height="20" version="1.1" viewBox="0 0 20 20"><title>participation-white</title><desc>Created with Sketch.</desc><defs><path id="path-1" d="M16.4327336,4.23058016 C15.7949129,4.23058016 15.4216219,4.76240463 15.4216219,5.39561678 L15.2363589,9.07967638 L14.8363385,9.07967638 L14.8870323,2.90793179 C14.8870323,2.27471965 14.3717985,1.76317272 13.7348996,1.76317272 C13.0980006,1.76317272 12.5827669,2.27471965 12.5827669,2.90793179 L12.3790698,9.09534538 L11.9698322,9.08428491 L11.8149856,2.14475908 C11.8149856,1.51154693 11.2997519,1 10.6628529,1 C10.0250322,1 9.51072015,1.51154693 9.51072015,2.14475908 L9.46002631,9.07967638 L9.16323692,9.07967638 L8.7420172,4.05269087 C8.7420172,3.41947872 8.22770515,2.90793179 7.58988447,2.90793179 C6.9529855,2.90793179 6.43775175,3.41947872 6.43775175,4.05269087 C6.43775175,4.05269087 7.22212371,13.2669876 7.22212371,13.4181474 C7.22212371,13.6476522 7.10045849,13.6412003 6.78523498,13.3462543 C6.58338132,13.1573045 4.0744971,11.1535153 4.05237615,11.1489068 C3.12790485,10.595883 2.09467223,11.8512469 2.50944001,12.4770854 C3.12237462,13.4034001 7.2801912,17.5990066 7.2801912,17.5990066 C8.55583255,18.7253316 9.16784545,19 9.99738102,19 L13.915554,18.9271852 C15.6050414,18.9271852 17.0392162,17.0837729 17.0392162,16.1897179 L17.5848663,5.37533924 C17.5848663,4.74212709 17.0696325,4.23058016 16.4327336,4.23058016 L16.4327336,4.23058016 Z"/></defs><g id="Symbols" fill="none" fill-rule="evenodd" stroke="none" stroke-width="1"><g id="participation-white"><mask id="mask-2" fill="#fff"><use xlink:href="#path-1"/></mask><use id="Icons/Navigational/Engagement/participation" fill="#000" xlink:href="#path-1"/><polygon id="Path" fill="#FFF" points="11.16 16.047 8.714 13.607 9.527 12.794 11.16 14.42 14.136 11.438 14.949 12.251"/></g></g></svg>