<svg xmlns="http://www.w3.org/2000/svg" xmlns:xlink="http://www.w3.org/1999/xlink" width="20" height="20" version="1.1" viewBox="0 0 20 20"><title>power</title><desc>Created with Sketch.</desc><defs><path id="path-1" d="M9.11111111,10.8888889 L10.8888889,10.8888889 L10.8888889,2 L9.11111111,2 L9.11111111,10.8888889 Z M15.1866667,3.92444444 L13.9288889,5.18222222 C15.3244444,6.32444444 16.2222222,8.05333333 16.2222222,10 C16.2222222,13.4355556 13.4355556,16.2222222 10,16.2222222 C6.56444444,16.2222222 3.77777778,13.4355556 3.77777778,10 C3.77777778,8.05333333 4.67555556,6.32444444 6.07111111,5.18222222 L4.81333333,3.92444444 C3.09688889,5.39111111 2,7.56444444 2,10 C2,14.4177778 5.58222222,18 10,18 C14.4177778,18 18,14.4177778 18,10 C18,7.56444444 16.9031111,5.39111111 15.1866667,3.92444444 L15.1866667,3.92444444 Z"/></defs><g id="Symbols" fill="none" fill-rule="evenodd" stroke="none" stroke-width="1"><g id="power"><mask id="mask-2" fill="#fff"><use xlink:href="#path-1"/></mask><use id="Icons/Actions/power" fill="#000" xlink:href="#path-1"/></g></g></svg>