<svg xmlns="http://www.w3.org/2000/svg" xmlns:xlink="http://www.w3.org/1999/xlink" width="20" height="20" version="1.1" viewBox="0 0 20 20"><title>print-white</title><desc>Created with Sketch.</desc><g id="Symbols" fill="none" fill-rule="evenodd" stroke="none" stroke-width="1"><g id="print-white"><path id="Path" fill="#000" d="M15.5999996,6.79999989 L4.39999994,6.79999989 C3.07199997,6.79999989 2,7.87199987 2,9.19999983 L2,13.9999997 L5.19999992,13.9999997 L5.19999992,17.1999996 L14.7999997,17.1999996 L14.7999997,13.9999997 L17.9999996,13.9999997 L17.9999996,9.19999983 C17.9999996,7.87199987 16.9279996,6.79999989 15.5999996,6.79999989 L15.5999996,6.79999989 Z"/><polygon id="Path" fill="#000" points="5.2 6 14.8 6 14.8 2.8 5.2 2.8"/><path id="Path" fill="#FFF" d="M15.5999996,9.99999981 C15.1599997,9.99999981 14.7999997,9.63999982 14.7999997,9.19999983 C14.7999997,8.75999984 15.1599997,8.39999985 15.5999996,8.39999985 C16.0399996,8.39999985 16.3999996,8.75999984 16.3999996,9.19999983 C16.3999996,9.63999982 16.0399996,9.99999981 15.5999996,9.99999981 L15.5999996,9.99999981 Z"/><polygon id="Path" fill="#FFF" points="6.8 15.6 13.2 15.6 13.2 11.6 6.8 11.6"/></g></g></svg>