<svg xmlns="http://www.w3.org/2000/svg" xmlns:xlink="http://www.w3.org/1999/xlink" width="20" height="20" version="1.1" viewBox="0 0 20 20"><title>surveys</title><desc>Created with Sketch.</desc><defs><path id="path-1" d="M12.1933333,2.45399007 L15.4441333,2.45399007 C16.3,2.45399007 17,3.10854743 17,3.90885289 L17,17.5451372 C17,18.3454426 16.3,19 15.4441333,19 L4.55586667,19 C3.7,19 3,18.3454426 3,17.5451372 L3,3.90885289 C3,3.10854743 3.7,2.45399007 4.55586667,2.45399007 L7.80666667,2.45399007 C8.13333333,1.6109202 8.9892,1 10,1 C11.0108,1 11.8666667,1.6109202 12.1933333,2.45399007 Z M6.36313159,8.54526188 L13.6359357,8.54526188 L13.6359357,7.09052653 L6.36313159,7.09052653 L6.36313159,8.54526188 Z M6.36313159,11.4538599 L13.6359357,11.4538599 L13.6359357,9.99912456 L6.36313159,9.99912456 L6.36313159,11.4538599 Z M6.36313159,14.3624579 L11.454269,14.3624579 L11.454269,12.9077226 L6.36313159,12.9077226 L6.36313159,14.3624579 Z M9.99953363,2.45412448 C9.59985229,2.45412448 9.27260229,2.78137449 9.27260229,3.18192849 C9.27260229,3.58160983 9.59985229,3.90885983 9.99953363,3.90885983 C10.399215,3.90885983 10.726465,3.58160983 10.726465,3.18192849 C10.726465,2.78137449 10.399215,2.45412448 9.99953363,2.45412448 Z"/></defs><g id="Symbols" fill="none" fill-rule="evenodd" stroke="none" stroke-width="1"><g id="surveys"><mask id="mask-2" fill="#fff"><use xlink:href="#path-1"/></mask><use fill="#000" xlink:href="#path-1"/></g></g></svg>