<svg xmlns="http://www.w3.org/2000/svg" xmlns:xlink="http://www.w3.org/1999/xlink" width="20" height="20" version="1.1" viewBox="0 0 20 20"><title>surveys-white</title><desc>Created with Sketch.</desc><defs><path id="path-1" d="M12.1933333,2.45399007 C11.8666667,1.6109202 11.0108,1 10,1 C8.9892,1 8.13333333,1.6109202 7.80666667,2.45399007 L4.55586667,2.45399007 C3.7,2.45399007 3,3.10854743 3,3.90885289 L3,17.5451372 C3,18.3454426 3.7,19 4.55586667,19 L15.4441333,19 C16.3,19 17,18.3454426 17,17.5451372 L17,3.90885289 C17,3.10854743 16.3,2.45399007 15.4441333,2.45399007 L12.1933333,2.45399007 Z M9.99953363,2.45412448 C10.399215,2.45412448 10.726465,2.78137449 10.726465,3.18192849 C10.726465,3.58160983 10.399215,3.90885983 9.99953363,3.90885983 C9.59985229,3.90885983 9.27260229,3.58160983 9.27260229,3.18192849 C9.27260229,2.78137449 9.59985229,2.45412448 9.99953363,2.45412448 L9.99953363,2.45412448 Z"/></defs><g id="Symbols" fill="none" fill-rule="evenodd" stroke="none" stroke-width="1"><g id="surveys-white"><mask id="mask-2" fill="#fff"><use xlink:href="#path-1"/></mask><use id="Icons/Navigational/Global/surveys" fill="#000" xlink:href="#path-1"/><polygon id="Path" fill="#FFF" points="6.363 8.545 13.636 8.545 13.636 7.091 6.363 7.091"/><polygon id="Path" fill="#FFF" points="6.363 11.454 13.636 11.454 13.636 9.999 6.363 9.999"/><polygon id="Path" fill="#FFF" points="6.363 14.362 11.454 14.362 11.454 12.908 6.363 12.908"/></g></g></svg>