<svg xmlns="http://www.w3.org/2000/svg" xmlns:xlink="http://www.w3.org/1999/xlink" width="20" height="20" version="1.1" viewBox="0 0 20 20"><title>tasks</title><desc>Created with Sketch.</desc><defs><path id="path-1" d="M15.4444444,3 L4.54777778,3 C3.68444444,3 3.00777778,3.69222222 3.00777778,4.55555556 L3,15.4444444 C3,16.3 3.68444444,17 4.54777778,17 L15.4444444,17 C16.3,17 17,16.3 17,15.4444444 L17,4.55555556 C17,3.69222222 16.3,3 15.4444444,3 Z"/></defs><g id="Symbols" fill="none" fill-rule="evenodd" stroke="none" stroke-width="1"><g id="tasks"><mask id="mask-2" fill="#fff"><use xlink:href="#path-1"/></mask><use id="Atoms/Icons/Navigational/Effectiveness/tasks" fill="#000" fill-rule="nonzero" xlink:href="#path-1"/><path id="Path" fill="#FFF" d="M15.4444444,12.3333333 L12.3333333,12.3333333 C12.3333333,13.6244444 11.2833333,14.6666667 10,14.6666667 C8.71666667,14.6666667 7.66666667,13.6244444 7.66666667,12.3333333 L4.54777778,12.3333333 L4.54777778,4.55555556 L15.4444444,4.55555556 L15.4444444,12.3333333 Z"/></g></g></svg>