<svg xmlns="http://www.w3.org/2000/svg" xmlns:xlink="http://www.w3.org/1999/xlink" width="20" height="20" version="1.1" viewBox="0 0 20 20"><title>template-white</title><desc>Created with Sketch.</desc><defs><path id="path-1" d="M9.18181818,3.45454545 C9.18181818,3.00454545 9.55,2.63636364 10,2.63636364 C10.45,2.63636364 10.8181818,3.00454545 10.8181818,3.45454545 C10.8181818,3.90454545 10.45,4.27272727 10,4.27272727 C9.55,4.27272727 9.18181818,3.90454545 9.18181818,3.45454545 Z M12.3072727,2.63636364 C11.9636364,1.68727273 11.0636364,1 10,1 C8.93636364,1 8.03636364,1.68727273 7.69272727,2.63636364 L4.64088024,2.63636364 C3.74088024,2.63636364 3.0045166,3.37272727 3.0045166,4.27272727 L3.0045166,17.3636364 C3.0045166,18.2636364 3.74088024,19 4.64088024,19 L15.3683971,19 C16.2683971,19 17.0047607,18.2636364 17.0047607,17.3636364 L17.0047607,4.27272727 C17.0047607,3.37272727 16.2683971,2.63636364 15.3683971,2.63636364 L12.3072727,2.63636364 Z"/></defs><g id="Symbols" fill="none" fill-rule="evenodd" stroke="none" stroke-width="1"><g id="template-white"><mask id="mask-2" fill="#fff"><use xlink:href="#path-1"/></mask><use id="Icons/Surveys/survey-template" fill="#000" xlink:href="#path-1"/><polygon id="Path" fill="#FFF" points="12.005 11.273 13.46 11.273 13.46 9.818 12.005 9.818"/><polygon id="Path" fill="#FFF" points="9.288 11.273 10.742 11.273 10.742 9.818 9.288 9.818"/><polygon id="Path" fill="#FFF" points="6.543 11.273 7.998 11.273 7.998 9.818 6.543 9.818"/></g></g></svg>