<svg xmlns="http://www.w3.org/2000/svg" xmlns:xlink="http://www.w3.org/1999/xlink" width="20" height="20" version="1.1" viewBox="0 0 20 20"><title>user-add</title><desc>Created with Sketch.</desc><defs><path id="path-1" d="M7.49878785,11.6665833 C5.27419241,11.6665833 0.833333333,12.78325 0.833333333,14.9999167 L0.833333333,16.6665833 L14.1642424,16.6665833 L14.1642424,14.9999167 C14.1642424,12.78325 9.7233833,11.6665833 7.49878785,11.6665833 L7.49878785,11.6665833 Z M16.6637878,8.33325 L16.6637878,5.83325 L14.9974242,5.83325 L14.9974242,8.33325 L12.4978787,8.33325 L12.4978787,9.99991667 L14.9974242,9.99991667 L14.9974242,12.4999167 L16.6637878,12.4999167 L16.6637878,9.99991667 L19.1633333,9.99991667 L19.1633333,8.33325 L16.6637878,8.33325 Z M7.49878785,9.99991667 C9.34011966,9.99991667 10.8315151,8.50825 10.8315151,6.66658333 C10.8315151,4.82491667 9.34011966,3.33325 7.49878785,3.33325 C5.65745604,3.33325 4.16606059,4.82491667 4.16606059,6.66658333 C4.16606059,8.50825 5.65745604,9.99991667 7.49878785,9.99991667 L7.49878785,9.99991667 Z"/></defs><g id="Symbols" fill="none" fill-rule="evenodd" stroke="none" stroke-width="1"><g id="user-add"><mask id="mask-2" fill="#fff"><use xlink:href="#path-1"/></mask><use id="Icons/Users/user-add" fill="#000" xlink:href="#path-1"/></g></g></svg>